<?xml version="1.0" encoding="UTF-8"?>
<svg version="1.1" xmlns="http://www.w3.org/2000/svg" width="382" height="409">
<path d="M0 0 C3.38109336 3.13004851 5.95484052 6.45030576 8.47265625 10.2890625 C9.30990234 11.49175781 9.30990234 11.49175781 10.1640625 12.71875 C14.47265625 18.97670751 14.47265625 18.97670751 14.47265625 21.2890625 C16.01759766 21.32773438 16.01759766 21.32773438 17.59375 21.3671875 C31.24982026 21.85421086 45.31445478 23.60205169 57.47265625 30.2890625 C58.66375 30.93488281 58.66375 30.93488281 59.87890625 31.59375 C77.61964841 41.72349475 89.21291635 56.0199531 94.96484375 75.71484375 C96.70852407 84.55396167 96.62734 93.40483592 96.63378906 102.37719727 C96.63842586 103.88949197 96.64345166 105.40178552 96.64883423 106.91407776 C96.66187874 111.00126522 96.66838775 115.08843631 96.67284489 119.1756413 C96.675789 121.73720785 96.67989627 124.29877006 96.68434906 126.8603344 C96.69800413 134.89820856 96.70768005 142.93607265 96.71155095 150.9739576 C96.71602454 160.20896458 96.73354829 169.44382304 96.76255155 178.67878491 C96.78426875 185.84603913 96.79426058 193.01325187 96.79559207 200.18053859 C96.7966331 204.44771907 96.80238922 208.71475956 96.82041168 212.98190498 C96.83706678 217.0031283 96.83896479 221.02410902 96.83027267 225.04535484 C96.82951147 226.50768821 96.83372118 227.97003559 96.84373093 229.4323349 C96.92914728 242.70664913 95.84953895 256.308357 89.66015625 268.2890625 C89.30759766 268.99981934 88.95503906 269.71057617 88.59179688 270.44287109 C84.23079622 279.03230115 79.0454527 285.32055686 71.47265625 291.2890625 C70.74433594 291.86527344 70.01601563 292.44148438 69.265625 293.03515625 C54.88859195 303.74044288 40.52998267 307.57394056 22.75390625 307.60791016 C21.53080246 307.61795578 20.30769867 307.6280014 19.04753113 307.63835144 C15.71738948 307.66379487 12.3874157 307.68075781 9.05721664 307.69377947 C5.52483298 307.7096159 1.99253028 307.73637269 -1.53979492 307.7618103 C-7.49444085 307.80321568 -13.4490921 307.83771304 -19.40380859 307.8671875 C-27.67162983 307.90811421 -35.93934129 307.96088953 -44.20707548 308.01644373 C-60.15539501 308.12306066 -76.10374438 308.20538756 -92.0522728 308.2736969 C-95.26228383 308.28789049 -98.47228161 308.30369109 -101.68228149 308.32019043 C-105.91462088 308.34157397 -110.14693829 308.35798612 -114.37931824 308.36863327 C-115.78724249 308.37276874 -117.19516329 308.3784987 -118.60307312 308.38609695 C-142.82171831 308.51074855 -162.00415033 303.06925294 -180.08984375 286.2265625 C-188.79729908 277.11982351 -194.13475685 266.64514325 -198.65234375 255.03125 C-200.76315138 249.6090553 -203.11863583 244.30008836 -205.46484375 238.9765625 C-208.5574465 231.91478204 -211.56595032 224.83268459 -214.40234375 217.6640625 C-222.25322813 197.82634521 -230.4879391 178.15488253 -239.07495117 158.62548828 C-242.44619761 150.9223743 -245.55683173 143.15460559 -248.52734375 135.2890625 C-249.04004072 133.97541597 -249.55505956 132.66266857 -250.07421875 131.3515625 C-250.66976562 129.835625 -250.66976562 129.835625 -251.27734375 128.2890625 C-251.6846875 127.2578125 -252.09203125 126.2265625 -252.51171875 125.1640625 C-257.98519428 109.66991638 -255.59786551 89.87829161 -248.86206055 75.28149414 C-240.97187922 58.9376817 -227.98082357 45.19347971 -210.65234375 38.7265625 C-210.01167969 38.50613281 -209.37101562 38.28570312 -208.7109375 38.05859375 C-200.10644726 35.02624209 -191.80934381 31.09600925 -183.52734375 27.2890625 C-177.83540162 24.6746804 -172.07508437 22.28395811 -166.25341797 19.97265625 C-159.95455318 17.46928047 -153.67787878 14.91278809 -147.40234375 12.3515625 C-136.89299809 8.06619095 -126.38218716 3.78444794 -115.86651611 -0.48538208 C-114.29645307 -1.12313914 -112.72658 -1.76136416 -111.15692139 -2.40011597 C-102.78028279 -5.80850312 -94.39080122 -9.18177213 -85.96875 -12.4765625 C-85.25492661 -12.75731628 -84.54110321 -13.03807007 -83.8056488 -13.32733154 C-53.91835932 -24.95751578 -24.70240699 -20.77642669 0 0 Z " fill="#CFAAF0" transform="translate(268.52734375,41.7109375)"/>
<path d="M0 0 C5.62924848 5.19486553 10.52127091 11.76304044 12.48046875 19.2890625 C12.18544425 20.96293509 11.85590158 22.63137161 11.48046875 24.2890625 C10.77516148 24.29145085 10.0698542 24.29383921 9.34317398 24.29629993 C-7.86059557 24.35557271 -25.06421653 24.43120075 -42.26783371 24.52477741 C-50.5875598 24.56964168 -58.90724398 24.60907766 -67.22705078 24.63549805 C-74.48307666 24.65855432 -81.73896886 24.69203672 -88.99488854 24.73776406 C-92.83279126 24.761594 -96.67056242 24.78038946 -100.50853729 24.78667641 C-104.12999141 24.79277401 -107.75110937 24.81293961 -111.37243843 24.84333801 C-113.31670836 24.85615703 -115.26105712 24.85456117 -117.20536804 24.8523407 C-137.27648387 25.06451705 -154.96784581 32.88772163 -169.39453125 46.7265625 C-175.45629339 53.11147004 -180.46191548 59.9898197 -183.51953125 68.2890625 C-183.85855469 69.17980469 -184.19757813 70.07054688 -184.546875 70.98828125 C-187.12689456 77.86527289 -188.64277462 83.61297283 -188.65324402 91.00683594 C-188.65664235 92.0002556 -188.65664235 92.0002556 -188.66010934 93.01374435 C-188.66642218 95.22532664 -188.66562174 97.43684722 -188.66479492 99.6484375 C-188.66778804 101.23710204 -188.67119092 102.82576585 -188.67497253 104.41442871 C-188.68379952 108.72425215 -188.68615005 113.03405573 -188.68678832 117.34388733 C-188.68749937 120.03667405 -188.68963469 122.72945574 -188.69228554 125.42224121 C-188.70153345 134.81665365 -188.70562097 144.21105191 -188.70483398 153.60546875 C-188.70423279 162.36292929 -188.71479423 171.12032832 -188.73057765 179.87777328 C-188.74364851 187.3980628 -188.7490181 194.91833218 -188.74837857 202.43863297 C-188.74812353 206.92961033 -188.75097875 211.42053297 -188.76155663 215.91149902 C-188.77123038 220.13368619 -188.77132177 224.35576623 -188.76403999 228.57795715 C-188.76299337 230.12714291 -188.76536166 231.67633531 -188.77140045 233.22550964 C-188.77911223 235.34089572 -188.77448126 237.45591103 -188.76676941 239.57128906 C-188.76731418 240.75482971 -188.76785894 241.93837036 -188.76842022 243.15777588 C-188.51786438 246.31003352 -187.81932949 248.43230574 -186.51953125 251.2890625 C-186.14828125 252.5471875 -185.77703125 253.8053125 -185.39453125 255.1015625 C-179.26727044 273.42207232 -168.52367437 287.1044574 -151.89453125 297.1640625 C-150.78078125 297.8653125 -149.66703125 298.5665625 -148.51953125 299.2890625 C-148.51953125 299.9490625 -148.51953125 300.6090625 -148.51953125 301.2890625 C-152.43524826 302.5943015 -153.55846122 301.61146098 -157.20703125 299.8515625 C-158.69783203 299.14193359 -158.69783203 299.14193359 -160.21875 298.41796875 C-160.97800781 298.04542969 -161.73726563 297.67289062 -162.51953125 297.2890625 C-162.51953125 296.6290625 -162.51953125 295.9690625 -162.51953125 295.2890625 C-163.84984375 294.9178125 -163.84984375 294.9178125 -165.20703125 294.5390625 C-170.82740099 292.41816826 -174.33732472 288.47126903 -178.51953125 284.2890625 C-179.44765625 283.6496875 -180.37578125 283.0103125 -181.33203125 282.3515625 C-183.51953125 280.2890625 -183.51953125 280.2890625 -183.83203125 277.0390625 C-183.72890625 276.1315625 -183.62578125 275.2240625 -183.51953125 274.2890625 C-184.17953125 274.2890625 -184.83953125 274.2890625 -185.51953125 274.2890625 C-185.51953125 273.6290625 -185.51953125 272.9690625 -185.51953125 272.2890625 C-186.17953125 272.2890625 -186.83953125 272.2890625 -187.51953125 272.2890625 C-187.761875 271.69738281 -188.00421875 271.10570312 -188.25390625 270.49609375 C-190.22814928 265.84143616 -192.27559269 262.20416076 -195.51953125 258.2890625 C-196.26953125 255.9765625 -196.26953125 255.9765625 -196.51953125 254.2890625 C-197.17953125 254.2890625 -197.83953125 254.2890625 -198.51953125 254.2890625 C-204.00737068 242.59261029 -209.42779768 230.97322594 -213.796875 218.80859375 C-216.12814705 212.51637946 -218.85716077 206.38380815 -221.51953125 200.2265625 C-225.09613948 191.95065478 -228.61528311 183.67348571 -231.91015625 175.28125 C-234.11441687 169.74120831 -236.49335122 164.27326121 -238.83203125 158.7890625 C-242.54428668 150.05983385 -246.1704213 141.30348564 -249.64453125 132.4765625 C-250.02262939 131.52265625 -250.40072754 130.56875 -250.7902832 129.5859375 C-251.13663818 128.69777344 -251.48299316 127.80960938 -251.83984375 126.89453125 C-252.14164551 126.12262451 -252.44344727 125.35071777 -252.75439453 124.55541992 C-258.27514078 108.20280748 -255.13791304 88.29755015 -247.83203125 73.1640625 C-239.6116571 57.08006523 -226.00925707 44.01301746 -208.703125 38.05859375 C-200.09863476 35.02624209 -191.80153131 31.09600925 -183.51953125 27.2890625 C-177.82758912 24.6746804 -172.06727187 22.28395811 -166.24560547 19.97265625 C-159.94674068 17.46928047 -153.67006628 14.91278809 -147.39453125 12.3515625 C-136.88518559 8.06619095 -126.37437466 3.78444794 -115.85870361 -0.48538208 C-114.28864057 -1.12313914 -112.7187675 -1.76136416 -111.14910889 -2.40011597 C-102.77247029 -5.80850312 -94.38298872 -9.18177213 -85.9609375 -12.4765625 C-85.24711411 -12.75731628 -84.53329071 -13.03807007 -83.7978363 -13.32733154 C-53.93840447 -24.9466754 -24.66596604 -20.80429858 0 0 Z " fill="#D091F4" transform="translate(268.51953125,41.7109375)"/>
<path d="M0 0 C1.37562854 1.28965176 2.70766393 2.62689293 4 4 C4 4.66 4 5.32 4 6 C5.54494141 6.03867187 5.54494141 6.03867187 7.12109375 6.078125 C20.77716401 6.56514836 34.84179853 8.31298919 47 15 C48.19109375 15.64582031 48.19109375 15.64582031 49.40625 16.3046875 C67.14699216 26.43443225 78.7402601 40.7308906 84.4921875 60.42578125 C86.23586782 69.26489917 86.15468375 78.11577342 86.16113281 87.08813477 C86.16576961 88.60042947 86.17079541 90.11272302 86.17617798 91.62501526 C86.18922249 95.71220272 86.1957315 99.79937381 86.20018864 103.8865788 C86.20313275 106.44814535 86.20724002 109.00970756 86.21169281 111.5712719 C86.22534788 119.60914606 86.2350238 127.64701015 86.2388947 135.6848951 C86.24336829 144.91990208 86.26089204 154.15476054 86.2898953 163.38972241 C86.3116125 170.55697663 86.32160433 177.72418937 86.32293582 184.89147609 C86.32397685 189.15865657 86.32973297 193.42569706 86.34775543 197.69284248 C86.36441053 201.7140658 86.36630854 205.73504652 86.35761642 209.75629234 C86.35685522 211.21862571 86.36106493 212.68097309 86.37107468 214.1432724 C86.45649103 227.41758663 85.3768827 241.0192945 79.1875 253 C78.83494141 253.71075684 78.48238281 254.42151367 78.11914062 255.15380859 C73.75813997 263.74323865 68.57279645 270.03149436 61 276 C60.27167969 276.57621094 59.54335938 277.15242188 58.79296875 277.74609375 C44.4159357 288.45138038 30.05732642 292.28487806 12.28125 292.31884766 C11.05814621 292.32889328 9.83504242 292.3389389 8.57487488 292.34928894 C5.24473323 292.37473237 1.91475945 292.39169531 -1.41543961 292.40471697 C-4.94782327 292.4205534 -8.48012597 292.44731019 -12.01245117 292.4727478 C-17.9670971 292.51415318 -23.92174835 292.54865054 -29.87646484 292.578125 C-38.14428608 292.61905171 -46.41199754 292.67182703 -54.67973173 292.72738123 C-70.62805126 292.83399816 -86.57640063 292.91632506 -102.52492905 292.9846344 C-105.73494008 292.99882799 -108.94493786 293.01462859 -112.15493774 293.03112793 C-116.38727713 293.05251147 -120.61959454 293.06892362 -124.85197449 293.07957077 C-126.25989874 293.08370624 -127.66781954 293.0894362 -129.07572937 293.09703445 C-153.29437456 293.22168605 -172.47680658 287.78019044 -190.5625 270.9375 C-197.99514998 263.21492395 -205.55584254 252.5430182 -208 242 C-207.67 241.01 -207.34 240.02 -207 239 C-206.731875 239.969375 -206.46375 240.93875 -206.1875 241.9375 C-205.5996875 243.4534375 -205.5996875 243.4534375 -205 245 C-204.01 245.33 -203.02 245.66 -202 246 C-200 249 -200 249 -200 253 C-199.34 253.33 -198.68 253.66 -198 254 C-198 254.99 -198 255.98 -198 257 C-197.34 257 -196.68 257 -196 257 C-196 257.66 -196 258.32 -196 259 C-195.34 259 -194.68 259 -194 259 C-193.79375 260.051875 -193.5875 261.10375 -193.375 262.1875 C-192.1462393 266.65079256 -189.60274158 268.25878358 -186 271 C-186 271.66 -186 272.32 -186 273 C-184.35 273.66 -182.7 274.32 -181 275 C-181 275.66 -181 276.32 -181 277 C-180.05125 277.309375 -179.1025 277.61875 -178.125 277.9375 C-175 279 -175 279 -173 280 C-173 280.66 -173 281.32 -173 282 C-166.11175931 284.40990104 -166.11175931 284.40990104 -159 286 C-159.91644839 283.69017389 -159.91644839 283.69017389 -162.875 282.4375 C-180.46711307 272.73649938 -191.02233469 257.25355663 -197.8203125 238.76953125 C-199.91307528 231.15010621 -199.16177231 222.82798214 -199 215 C-198.01 215 -197.02 215 -196 215 C-195.82984375 216.28132812 -195.6596875 217.56265625 -195.484375 218.8828125 C-192.9832179 239.55795843 -192.9832179 239.55795843 -184 258 C-181.5748212 259.99083177 -181.5748212 259.99083177 -179 261 C-178.236875 261.391875 -177.47375 261.78375 -176.6875 262.1875 C-176.130625 262.455625 -175.57375 262.72375 -175 263 C-175 263.66 -175 264.32 -175 265 C-174.34 265 -173.68 265 -173 265 C-173 265.66 -173 266.32 -173 267 C-172.01 267 -171.02 267 -170 267 C-170 267.66 -170 268.32 -170 269 C-169.01 269 -168.02 269 -167 269 C-167 269.66 -167 270.32 -167 271 C-166.34 271 -165.68 271 -165 271 C-165 271.66 -165 272.32 -165 273 C-164.21625 273.12375 -163.4325 273.2475 -162.625 273.375 C-160 274 -160 274 -158 276 C-155.5473625 276.92189302 -153.11782634 277.76696735 -150.625 278.5625 C-149.61566406 278.89411133 -149.61566406 278.89411133 -148.5859375 279.23242188 C-143.05550965 281.03416559 -138.64053028 282.12564679 -132.80859375 282.09765625 C-131.02098633 282.09282227 -131.02098633 282.09282227 -129.19726562 282.08789062 C-127.95654297 282.07951172 -126.71582031 282.07113281 -125.4375 282.0625 C-123.57061523 282.05573242 -123.57061523 282.05573242 -121.66601562 282.04882812 C-119.36253917 282.04009811 -117.05906896 282.02931972 -114.75561523 282.01586914 C-112.83710134 282.00482073 -110.9185457 282 -109 282 C-108.2575 281.360625 -107.515 280.72125 -106.75 280.0625 C-103.42087137 277.56565352 -101.09603015 277.37236638 -97 277 C-95.66082739 276.69096017 -94.32346746 276.37057089 -93 276 C-93 276.99 -93 277.98 -93 279 C-96 281 -96 281 -99 281 C-101.9952413 282.02276532 -103.7448078 282.7448078 -106 285 C-108.44772721 285.31641352 -110.79166524 285.51587434 -113.25 285.625 C-114.3172229 285.67974487 -114.3172229 285.67974487 -115.40600586 285.7355957 C-135.8948906 286.70670834 -135.8948906 286.70670834 -143 284 C-142.505 285.485 -142.505 285.485 -142 287 C-133.95072331 289.04041558 -126.2351733 289.27774536 -117.9609375 289.23046875 C-116.6267603 289.229273 -115.29258225 289.22882462 -113.95840454 289.2290802 C-111.17989735 289.2275271 -108.40152114 289.21932748 -105.62304688 289.20581055 C-102.08171787 289.18878934 -98.54053163 289.18499796 -94.99916649 289.18575573 C-91.59057143 289.18541685 -88.18202211 289.17657057 -84.7734375 289.16796875 C-83.51179779 289.16685593 -82.25015808 289.1657431 -80.95028687 289.16459656 C-74.85745401 289.13188714 -69.03020111 288.82745088 -63 288 C-60.48010855 287.92379361 -57.95852162 287.89183949 -55.4375 287.90234375 C-54.76074219 287.9037587 -54.08398438 287.90517365 -53.38671875 287.90663147 C-51.25776454 287.91216022 -49.12892158 287.92469845 -47 287.9375 C-45.54297029 287.94252424 -44.0859389 287.94708551 -42.62890625 287.95117188 C-39.0859023 287.96210612 -35.54296203 287.97932 -32 288 C-32 288.66 -32 289.32 -32 290 C-30.09359741 289.75117065 -30.09359741 289.75117065 -28.14868164 289.49731445 C-22.94971444 288.92210229 -17.84439714 288.94126772 -12.62109375 289.04296875 C-10.62696324 289.06537262 -8.63282188 289.0868263 -6.63867188 289.10742188 C-3.54746089 289.14427721 -0.45682591 289.18712672 2.6340332 289.24682617 C23.92323123 289.63737543 42.89016001 287.02733739 59.5 272.5 C61.0174256 271.01763043 62.51910598 269.51886566 64 268 C64.93199219 267.13375 64.93199219 267.13375 65.8828125 266.25 C81.51523971 250.54747222 82.14387721 227.62840057 82.13842773 206.94091797 C82.13427242 205.21061118 82.12978649 203.48030516 82.125 201.75 C82.12444611 200.84106995 82.12389221 199.93213989 82.12332153 198.9956665 C82.11628113 188.97511352 82.03660302 178.96172954 81.73828125 168.9453125 C81.71398041 168.1225885 81.68967957 167.2998645 81.66464233 166.45220947 C81.56395303 163.07494808 81.46297595 159.6977001 81.35839844 156.32055664 C80.99478307 144.06694886 81.01575447 131.84061208 81.26171875 119.5859375 C81.2755831 118.87239483 81.28944744 118.15885216 81.30373192 117.42368698 C81.44338938 110.26334409 81.59811184 103.10390106 81.80045319 95.9450388 C82.81217419 71.55811414 82.81217419 71.55811414 75.3125 48.6875 C74.96509766 48.02435791 74.61769531 47.36121582 74.25976562 46.67797852 C64.64386188 28.88205936 50.08028039 18.84755846 31 13 C26.44598342 11.84270866 21.86155775 11.67649206 17.1875 11.4375 C16.39923828 11.39431641 15.61097656 11.35113281 14.79882812 11.30664062 C12.86605785 11.20121679 10.93304974 11.10016906 9 11 C9 10.67 9 10.34 9 10 C7.88625 9.9690625 7.88625 9.9690625 6.75 9.9375 C3.61531815 8.86885846 3.28319198 8.31921518 1.6875 5.5625 C0 2 0 2 0 0 Z " fill="#F7EFFD" transform="translate(279,57)"/>
<path d="M0 0 C3.83911417 2.69554825 4.84087443 4.19111171 5.75 8.8125 C5.5155418 12.41661334 4.35586983 14.12102246 1.93359375 16.74609375 C1.2988916 17.44114014 0.66418945 18.13618652 0.01025391 18.85229492 C-0.65312988 19.5610376 -1.31651367 20.26978027 -2 21 C-2.62084473 21.67458252 -3.24168945 22.34916504 -3.88134766 23.04418945 C-5.80460389 25.12451244 -7.743096 27.18943742 -9.6875 29.25 C-10.37650391 29.9814624 -11.06550781 30.7129248 -11.77539062 31.46655273 C-17.73187035 37.76535097 -23.81785546 43.92323292 -30 50 C-28.51941247 55.04737747 -25.52736071 57.84703981 -21.85546875 61.40234375 C-21.24866776 62.00252823 -20.64186676 62.60271271 -20.01667786 63.22108459 C-18.08061272 65.13381372 -16.13467894 67.03609169 -14.1875 68.9375 C-12.25276537 70.8370006 -10.32024632 72.73867897 -8.39045715 74.64320374 C-7.19163374 75.82525429 -5.98972983 77.00419182 -4.78422546 78.1794281 C4.53150596 87.33099 4.53150596 87.33099 6 92.5625 C6 96.44961716 5.4047885 97.99401437 3 101 C-0.13531309 103.09020873 -2.10197865 103.61328246 -5.85229492 103.49316406 C-8.46268336 102.89375692 -9.58435844 101.97925089 -11.55078125 100.171875 C-12.58875854 99.21970093 -12.58875854 99.21970093 -13.64770508 98.24829102 C-17.81053877 94.26951204 -21.93155383 90.25442075 -26.00292969 86.18237305 C-27.52002025 84.66750914 -29.04499737 83.16087408 -30.5703125 81.65429688 C-31.53694493 80.690592 -32.50310897 79.72641702 -33.46875 78.76171875 C-34.33951172 77.89506592 -35.21027344 77.02841309 -36.10742188 76.13549805 C-38 74 -38 74 -38 72 C-38.60070312 71.73832031 -39.20140625 71.47664063 -39.8203125 71.20703125 C-42.13404277 69.92577201 -43.2545833 68.75192918 -44.875 66.6875 C-46.85108849 64.27005164 -48.79454457 62.24093085 -51.25 60.3125 C-55.00698999 57.15321296 -55.73654071 55.52220925 -56.5625 50.75 C-55.54192031 43.9461354 -50.35776029 40.15613233 -45.33740234 35.84130859 C-41.1427885 32.17788366 -37.20071773 28.31297312 -33.2890625 24.3515625 C-32.24774673 23.3045668 -32.24774673 23.3045668 -31.18539429 22.23641968 C-28.99612131 20.03505451 -26.81016264 17.83044481 -24.625 15.625 C-21.72420722 12.6976698 -18.82015086 9.77363449 -15.9140625 6.8515625 C-15.24952057 6.17872223 -14.58497864 5.50588196 -13.90029907 4.81265259 C-13.2856076 4.1946579 -12.67091614 3.57666321 -12.03759766 2.93994141 C-11.49769196 2.39479889 -10.95778625 1.84965637 -10.40151978 1.28799438 C-7.02313932 -1.81673174 -4.27957766 -1.015493 0 0 Z " fill="#EEEBF2" transform="translate(178,150)"/>
<path d="M0 0 C4.52482503 1.219402 7.12519433 4.3215212 10.3046875 7.62109375 C11.45957333 8.75922228 12.61737588 9.89439522 13.77734375 11.02734375 C23.99965523 21.07064212 23.99965523 21.07064212 28.3046875 26.62109375 C29.94771703 28.31106698 31.61940062 29.97325769 33.3046875 31.62109375 C34.00078125 32.3275 34.696875 33.03390625 35.4140625 33.76171875 C40.43105357 38.85359578 40.43105357 38.85359578 45.8046875 43.55859375 C48.29500454 45.61310531 49.08331406 46.40857105 49.6484375 49.50390625 C49.88663229 52.92200144 49.97987717 55.60394424 48.03840637 58.52870178 C47.47506088 59.13290451 46.91171539 59.73710724 46.33129883 60.35961914 C45.69326324 61.04951935 45.05522766 61.73941956 44.39785767 62.45022583 C43.70711151 63.16661224 43.01636536 63.88299866 42.3046875 64.62109375 C41.61660004 65.33530487 40.92851257 66.04951599 40.21957397 66.78536987 C37.95638826 69.10103877 35.67141851 71.39305831 33.37890625 73.6796875 C32.13570366 74.92432518 32.13570366 74.92432518 30.86738586 76.19410706 C29.12985955 77.93230948 27.39108739 79.66926737 25.65112305 81.4050293 C22.97913932 84.07161557 20.31258694 86.74355063 17.64648438 89.41601562 C15.95344591 91.10839401 14.26009765 92.80046256 12.56640625 94.4921875 C11.76748459 95.29313339 10.96856293 96.09407928 10.14543152 96.91929626 C9.40738785 97.65418777 8.66934418 98.38907928 7.90893555 99.14624023 C7.25942429 99.7949559 6.60991302 100.44367157 5.9407196 101.11204529 C2.69673052 104.10424619 -0.25905737 103.94815368 -4.5 103.9140625 C-6.6953125 103.62109375 -6.6953125 103.62109375 -9.1953125 101.74609375 C-11.71533495 98.17606194 -12.07027429 96.00939769 -11.6953125 91.62109375 C-7.13594513 83.68087732 0.5096921 77.17197616 6.9921875 70.80859375 C7.91580078 69.89400391 8.83941406 68.97941406 9.79101562 68.03710938 C11.50376229 66.34162581 13.2185765 64.64822597 14.9362793 62.95776367 C17.4037387 60.52336991 19.85602628 58.07438334 22.3046875 55.62109375 C22.9646875 54.96109375 23.6246875 54.30109375 24.3046875 53.62109375 C23.96547836 50.45228114 22.86872275 48.81871638 20.62426758 46.63183594 C20.06310745 46.07735779 19.50194733 45.52287964 18.92378235 44.95159912 C18.31342636 44.3630011 17.70307037 43.77440308 17.07421875 43.16796875 C16.44617844 42.54891663 15.81813812 41.9298645 15.17106628 41.29205322 C13.16011017 39.3111137 11.13960713 37.34032348 9.1171875 35.37109375 C7.11340741 33.41539665 5.11205432 31.45744551 3.11686707 29.49298096 C1.87654374 28.27214949 0.63133398 27.05625415 -0.61967468 25.84637451 C-11.03890917 15.60474527 -11.03890917 15.60474527 -12.3828125 9.49609375 C-10.71697524 2.52986522 -7.04500666 -0.56591037 0 0 Z " fill="#EFEDF3" transform="translate(261.6953125,149.37890625)"/>
<path d="M0 0 C3.5060303 0.86943897 4.94966563 2.56083702 6.9375 5.48046875 C7.40743638 10.86849699 6.3102998 15.22610601 4.47265625 20.2265625 C4.20816681 20.97393677 3.94367737 21.72131104 3.6711731 22.49133301 C2.79103097 24.97066547 1.89552469 27.44415522 1 29.91796875 C0.37239587 31.67678758 -0.25412636 33.43599279 -0.87963867 35.19555664 C-2.22198495 38.96695854 -3.57036708 42.7361286 -4.92285156 46.50390625 C-7.12142797 52.63516885 -9.29355262 58.77562162 -11.4609375 64.91796875 C-14.70126912 74.09996556 -17.95420579 83.2773834 -21.21615601 92.45172119 C-22.93527541 97.29090756 -24.64469047 102.13312842 -26.33198547 106.98350525 C-26.9684717 108.81178026 -27.60948488 110.63847742 -28.25073242 112.46508789 C-28.96706249 114.50581193 -29.67633145 116.54903811 -30.3762207 118.59545898 C-34.04400937 128.97122343 -34.04400937 128.97122343 -39.0625 131.48046875 C-43.39577174 131.97102782 -45.38250344 131.95791314 -49 129.41796875 C-51.65274145 125.63982184 -51.66074322 124.04207333 -51.0625 119.48046875 C-49.51610001 112.63574747 -46.83106556 106.12857567 -44.33007812 99.58959961 C-42.34939156 94.37063796 -40.6532054 89.10702952 -39.1171875 83.73828125 C-38.24288915 81.0376708 -37.26814632 78.47165077 -36.1953125 75.84765625 C-33.87932515 70.14372247 -31.96392539 64.33329378 -30.0625 58.48046875 C-27.89260325 51.80125532 -25.61809833 45.22895412 -22.95996094 38.72753906 C-21.72934518 35.64631289 -20.70187883 32.51371207 -19.6875 29.35546875 C-17.86816128 23.83594977 -16.01824634 18.32827152 -14.0625 12.85546875 C-13.83771973 12.19272949 -13.61293945 11.52999023 -13.38134766 10.84716797 C-10.90454925 4.04425157 -7.47868691 -0.52407465 0 0 Z " fill="#EEEBF2" transform="translate(239.0625,135.51953125)"/>
<path d="M0 0 C1.37562854 1.28965176 2.70766393 2.62689293 4 4 C4 4.66 4 5.32 4 6 C5.54494141 6.03867187 5.54494141 6.03867187 7.12109375 6.078125 C20.77716401 6.56514836 34.84179853 8.31298919 47 15 C47.7940625 15.43054688 48.588125 15.86109375 49.40625 16.3046875 C67.14699216 26.43443225 78.7402601 40.7308906 84.4921875 60.42578125 C86.23586782 69.26489917 86.15468375 78.11577342 86.16113281 87.08813477 C86.16576961 88.60042947 86.17079541 90.11272302 86.17617798 91.62501526 C86.18922249 95.71220272 86.1957315 99.79937381 86.20018864 103.8865788 C86.20313275 106.44814535 86.20724002 109.00970756 86.21169281 111.5712719 C86.22534788 119.60914606 86.2350238 127.64701015 86.2388947 135.6848951 C86.24336829 144.91990208 86.26089204 154.15476054 86.2898953 163.38972241 C86.3116125 170.55697663 86.32160433 177.72418937 86.32293582 184.89147609 C86.32397685 189.15865657 86.32973297 193.42569706 86.34775543 197.69284248 C86.36441053 201.7140658 86.36630854 205.73504652 86.35761642 209.75629234 C86.35685522 211.21862571 86.36106493 212.68097309 86.37107468 214.1432724 C86.45649103 227.41758663 85.3768827 241.0192945 79.1875 253 C78.83494141 253.71075684 78.48238281 254.42151367 78.11914062 255.15380859 C73.75813997 263.74323865 68.57279645 270.03149436 61 276 C60.27167969 276.57621094 59.54335938 277.15242188 58.79296875 277.74609375 C49.8125624 284.43299666 38.46294373 291.18791711 27 291 C24.76171875 289.99609375 24.76171875 289.99609375 23 289 C23.98097656 288.8040625 24.96195312 288.608125 25.97265625 288.40625 C41.07085558 285.15691232 53.12392686 279.15494681 64 268 C64.62132812 267.4225 65.24265625 266.845 65.8828125 266.25 C81.51523971 250.54747222 82.14387721 227.62840057 82.13842773 206.94091797 C82.13427242 205.21061118 82.12978649 203.48030516 82.125 201.75 C82.12416916 200.38660492 82.12416916 200.38660492 82.12332153 198.9956665 C82.11628113 188.97511352 82.03660302 178.96172954 81.73828125 168.9453125 C81.71398041 168.1225885 81.68967957 167.2998645 81.66464233 166.45220947 C81.56395303 163.07494808 81.46297595 159.6977001 81.35839844 156.32055664 C80.99478307 144.06694886 81.01575447 131.84061208 81.26171875 119.5859375 C81.2755831 118.87239483 81.28944744 118.15885216 81.30373192 117.42368698 C81.44338938 110.26334409 81.59811184 103.10390106 81.80045319 95.9450388 C82.81217419 71.55811414 82.81217419 71.55811414 75.3125 48.6875 C74.96509766 48.02435791 74.61769531 47.36121582 74.25976562 46.67797852 C64.64386188 28.88205936 50.08028039 18.84755846 31 13 C26.44598342 11.84270866 21.86155775 11.67649206 17.1875 11.4375 C16.39923828 11.39431641 15.61097656 11.35113281 14.79882812 11.30664062 C12.86605785 11.20121679 10.93304974 11.10016906 9 11 C9 10.67 9 10.34 9 10 C7.88625 9.9690625 7.88625 9.9690625 6.75 9.9375 C3.61531815 8.86885846 3.28319198 8.31921518 1.6875 5.5625 C0 2 0 2 0 0 Z " fill="#EEEEEF" transform="translate(279,57)"/>
<path d="M0 0 C1.11181641 0.00322266 2.22363281 0.00644531 3.36914062 0.00976562 C4.51962891 0.01814453 5.67011719 0.02652344 6.85546875 0.03515625 C8.02529297 0.03966797 9.19511719 0.04417969 10.40039062 0.04882812 C13.28130233 0.06058695 16.16210919 0.07702199 19.04296875 0.09765625 C18.71296875 0.75765625 18.38296875 1.41765625 18.04296875 2.09765625 C15.453125 2.40625 15.453125 2.40625 12.10546875 2.53515625 C6.76868718 2.85184439 2.19558431 3.70322682 -2.8359375 5.4765625 C-4.95703125 6.09765625 -4.95703125 6.09765625 -8.95703125 6.09765625 C-8.95703125 6.75765625 -8.95703125 7.41765625 -8.95703125 8.09765625 C-10.19066406 8.51724609 -10.19066406 8.51724609 -11.44921875 8.9453125 C-27.75570869 14.80133833 -42.50628149 26.51195179 -50.94140625 41.9140625 C-53.38736494 47.17287368 -55.09044394 52.52298361 -56.45703125 58.16015625 C-56.95703125 60.09765625 -56.95703125 60.09765625 -57.953125 62.80078125 C-59.00017087 66.23932878 -59.33087234 69.20063689 -59.51953125 72.78515625 C-59.59171875 74.079375 -59.66390625 75.37359375 -59.73828125 76.70703125 C-59.81125548 78.17057005 -59.8841681 79.63411192 -59.95703125 81.09765625 C-60.05006493 82.83206982 -60.14384344 84.56644357 -60.23828125 86.30078125 C-60.48676972 90.89930972 -60.72434059 95.49830253 -60.95703125 100.09765625 C-61.94703125 99.76765625 -62.93703125 99.43765625 -63.95703125 99.09765625 C-64.05713428 93.65744174 -64.12907221 88.2177824 -64.17675781 82.77685547 C-64.19667054 80.93235923 -64.22381092 79.0879244 -64.25878906 77.24365234 C-64.50610418 63.85226593 -64.2294401 51.84558351 -56.95703125 40.09765625 C-56.56515625 39.04578125 -56.17328125 37.99390625 -55.76953125 36.91015625 C-53.55061778 31.5940094 -49.70021546 27.4046958 -45.95703125 23.09765625 C-45.36019531 22.40414062 -44.76335937 21.710625 -44.1484375 20.99609375 C-33.14143282 9.1132629 -16.38190807 -0.08400978 0 0 Z " fill="#E7CEF9" transform="translate(142.95703125,66.90234375)"/>
<path d="M0 0 C0.99 0.495 0.99 0.495 2 1 C2 1.66 2 2.32 2 3 C7.94 3 13.88 3 20 3 C20 3.33 20 3.66 20 4 C1.17995444 5.14806378 1.17995444 5.14806378 -8 5 C-8 5.66 -8 6.32 -8 7 C-6.88625 6.95875 -5.7725 6.9175 -4.625 6.875 C-1 7 -1 7 1 9 C-14.30919139 9.19109948 -14.30919139 9.19109948 -20 8 C-20.495 7.505 -20.495 7.505 -21 7 C-30.13922889 5.44284621 -39.65896922 5.81382014 -48.90039062 5.81469727 C-51.52229366 5.81248116 -54.14379444 5.79418074 -56.765625 5.77539062 C-58.43749857 5.77246127 -60.10937412 5.77047341 -61.78125 5.76953125 C-62.95306824 5.75875298 -62.95306824 5.75875298 -64.14855957 5.74775696 C-67.9700278 5.76397256 -69.74266826 5.82844551 -73 8 C-75.77368164 8.21118164 -75.77368164 8.21118164 -79.16015625 8.16015625 C-80.41715332 8.14847412 -81.67415039 8.13679199 -82.96923828 8.12475586 C-83.6369928 8.11443329 -84.30474731 8.10411072 -84.99273682 8.09347534 C-88.49370616 8.04108108 -91.99479715 8.02415475 -95.49609375 8.0078125 C-96.20668945 8.00408127 -96.91728516 8.00035004 -97.64941406 7.99650574 C-104.64743017 7.97288127 -111.63242229 8.16358676 -118.625 8.4375 C-119.70144775 8.47689697 -120.77789551 8.51629395 -121.88696289 8.55688477 C-126.38474176 8.74515376 -130.58958667 9.07215958 -135 10 C-137.101678 10.21359588 -139.2062183 10.40047833 -141.3125 10.5625 C-142.91544922 10.68818359 -142.91544922 10.68818359 -144.55078125 10.81640625 C-145.35902344 10.87699219 -146.16726562 10.93757813 -147 11 C-138.3171179 6.45182366 -129.70053569 5.51598594 -120 5 C-126.6 4.67 -133.2 4.34 -140 4 C-140 3.67 -140 3.34 -140 3 C-94.13 2.67 -48.26 2.34 -1 2 C-0.67 1.34 -0.34 0.68 0 0 Z " fill="#CFB4E6" transform="translate(281,63)"/>
<path d="M0 0 C12.13610729 5.58102981 19.34637857 20.46743591 24.125 32.28125 C25.81845318 37.54305094 26.12436768 42.59604838 26.12025452 48.09945679 C26.12110894 48.79062013 26.12196337 49.48178348 26.12284368 50.19389117 C26.12448349 52.4969634 26.11900179 54.79996189 26.11352539 57.10302734 C26.11324317 58.7590637 26.11340194 60.41510019 26.1139679 62.07113647 C26.1142545 66.55825237 26.10837977 71.04534147 26.10139394 75.53245115 C26.09513774 80.22497134 26.09455481 84.91749216 26.09336853 89.61001587 C26.0902619 98.49214657 26.08205751 107.37426494 26.07201904 116.25639021 C26.06083716 126.36999909 26.05534222 136.48360857 26.05032361 146.59722209 C26.03987435 167.39815494 26.02228784 188.19907669 26 209 C25.67 209 25.34 209 25 209 C24.00787238 199.15180468 23.9094757 189.42348851 23.98141479 179.53753662 C24.06426603 167.6681787 24.10568434 155.80266628 23.74609375 143.9375 C23.72129944 143.11526947 23.69650513 142.29303894 23.67095947 141.44589233 C23.56767322 138.07092985 23.46310559 134.69600756 23.35784912 131.32110596 C22.99452548 119.06734736 23.01575166 106.84075163 23.26171875 94.5859375 C23.2755831 93.87239483 23.28944744 93.15885216 23.30373192 92.42368698 C23.44338938 85.26334409 23.59811184 78.10390106 23.80045319 70.9450388 C24.8107321 46.55841592 24.8107321 46.55841592 17.3125 23.6875 C16.96727295 23.02508301 16.6220459 22.36266602 16.26635742 21.68017578 C13.15784585 15.9049144 9.35269647 10.90026383 5 6 C3.99637396 4.79467672 2.99580319 3.58679431 2 2.375 C1.34 1.59125 0.68 0.8075 0 0 Z " fill="#D9D8DC" transform="translate(337,82)"/>
<path d="M0 0 C3 3.75 3 3.75 3 6 C3.99 6.33 4.98 6.66 6 7 C8 10 8 10 8 14 C8.66 14.33 9.32 14.66 10 15 C10 15.99 10 16.98 10 18 C10.66 18 11.32 18 12 18 C12 18.66 12 19.32 12 20 C12.66 20 13.32 20 14 20 C14.20625 21.051875 14.4125 22.10375 14.625 23.1875 C15.8537607 27.65079256 18.39725842 29.25878358 22 32 C22 32.66 22 33.32 22 34 C23.65 34.66 25.3 35.32 27 36 C27 36.66 27 37.32 27 38 C27.94875 38.309375 28.8975 38.61875 29.875 38.9375 C33 40 33 40 35 41 C35 41.66 35 42.32 35 43 C35.58007812 43.18175781 36.16015625 43.36351562 36.7578125 43.55078125 C40.30234743 44.69134942 43.59414294 45.77942551 46.875 47.5625 C56.53935186 52.00810186 67.62120386 51.30565979 78.0378418 51.31884766 C79.73402882 51.32816214 81.43021133 51.33833304 83.12638855 51.34928894 C87.69996193 51.37643174 92.27350477 51.39169138 96.84713721 51.40471697 C101.63842731 51.42041678 106.42965569 51.44718494 111.22090149 51.4727478 C120.27991625 51.51941484 129.33894277 51.55621717 138.3980158 51.58942068 C148.71733896 51.62772769 159.03659996 51.67711522 169.3558706 51.72740483 C190.57053441 51.83054497 211.78523764 51.9198633 233 52 C233 52.33 233 52.66 233 53 C216.52420944 53.13208113 200.04840678 53.26252541 183.57258892 53.39115143 C175.91825958 53.45094444 168.26393481 53.51123432 160.60961914 53.57275391 C101.7149898 54.04543527 101.7149898 54.04543527 83.10100746 54.08811951 C81.69572736 54.09177673 80.29045018 54.09702613 78.88518333 54.10414124 C54.68496806 54.21916886 35.50810176 48.766136 17.4375 31.9375 C9.83059676 24.03387359 0 11.34352541 0 0 Z " fill="#EEEDEF" transform="translate(71,296)"/>
<path d="M0 0 C0 0.66 0 1.32 0 2 C-15.15427082 8.67326393 -15.15427082 8.67326393 -22.625 11.75 C-25.50971581 12.93873524 -28.28164668 14.14369729 -31.0625 15.5625 C-33.6768774 16.84187617 -36.19370625 17.79651156 -38.9375 18.75 C-44.30085763 20.64982695 -49.37345926 22.98228774 -54.50366211 25.42382812 C-58.90030111 27.50926171 -63.32876339 29.4066271 -67.86328125 31.16796875 C-70.94431429 32.36771288 -73.96690677 33.68375199 -77 35 C-78.11375 35.45375 -79.2275 35.9075 -80.375 36.375 C-88.37489126 39.96115815 -94.41601 43.9601772 -100.73828125 50.109375 C-103 52 -103 52 -105.0078125 52.34765625 C-108.4320787 53.46893558 -109.78248169 56.74281541 -111.5625 59.6875 C-111.94857422 60.30044922 -112.33464844 60.91339844 -112.73242188 61.54492188 C-115.04714954 65.26347075 -117.10021804 69.0486963 -119 73 C-120 70 -120 70 -118.62890625 66.9609375 C-117.9547707 65.75729239 -117.26492847 64.56235611 -116.5625 63.375 C-116.19415039 62.74762939 -115.82580078 62.12025879 -115.44628906 61.47387695 C-107.20557023 47.80784259 -94.36047533 37.22249119 -79.2890625 31.83984375 C-70.67634877 28.67988905 -62.33023802 24.82912006 -54 21 C-48.33301802 18.39708242 -42.60070449 16.00873332 -36.80078125 13.71655273 C-32.22863226 11.90525252 -27.67775938 10.04657149 -23.1328125 8.16796875 C-21.28867169 7.40820624 -19.44453027 6.64844516 -17.60028076 5.88894653 C-15.76672017 5.13190345 -13.93534933 4.36956387 -12.10400391 3.60717773 C-10.97140137 3.14126221 -9.83879883 2.67534668 -8.671875 2.1953125 C-7.6519043 1.77266113 -6.63193359 1.35000977 -5.58105469 0.91455078 C-3 0 -3 0 0 0 Z " fill="#F0DDF8" transform="translate(139,48)"/>
<path d="M0 0 C5.61321806 1.82755937 5.61321806 1.82755937 8.24462891 3.00073242 C23.26989944 8.44982265 41.91994746 6.27425974 57.58337402 6.19561768 C60.32442061 6.18471905 63.06541779 6.18515179 65.80648232 6.18575573 C69.11319511 6.18541738 72.41986049 6.17658233 75.7265625 6.16796875 C76.94123199 6.16685593 78.15590149 6.1657431 79.40737915 6.16459656 C85.3803283 6.13124416 91.08749456 5.80434165 97 5 C99.51989145 4.92379361 102.04147838 4.89183949 104.5625 4.90234375 C105.23925781 4.9037587 105.91601562 4.90517365 106.61328125 4.90663147 C108.74223546 4.91216022 110.87107842 4.92469845 113 4.9375 C114.45702971 4.94252424 115.9140611 4.94708551 117.37109375 4.95117188 C120.9140977 4.96210612 124.45703797 4.97932 128 5 C128 5.66 128 6.32 128 7 C129.2478125 6.83757812 130.495625 6.67515625 131.78125 6.5078125 C137.36133275 5.89191413 142.89086349 5.85014743 148.5 5.875 C149.56919678 5.87693359 150.63839355 5.87886719 151.73999023 5.88085938 C163.50444854 5.94259256 175.25054079 6.43179464 187 7 C187 7.33 187 7.66 187 8 C164.55503047 8.07022599 142.11007918 8.1230546 119.6650219 8.15543652 C109.24230135 8.17087475 98.81964925 8.19190581 88.39697266 8.22631836 C79.30763899 8.25631418 70.21835492 8.2755971 61.12897313 8.28226548 C56.32069004 8.28616055 51.51254879 8.29525043 46.70431137 8.31719017 C42.16860822 8.33771656 37.63310389 8.34380153 33.0973587 8.33932304 C31.44229422 8.34014108 29.78722233 8.34600976 28.13219833 8.35761642 C17.97305343 8.42530258 8.88575217 7.60488188 -1 5 C-1 4.34 -1 3.68 -1 3 C-0.34 3 0.32 3 1 3 C0.67 2.01 0.34 1.02 0 0 Z " fill="#DAD9DD" transform="translate(119,340)"/>
<path d="M0 0 C0.66 0.33 1.32 0.66 2 1 C1.57702637 1.40202637 1.15405273 1.80405273 0.71826172 2.21826172 C-11.2912469 13.70975168 -19.50817092 23.59620503 -23.5 40.0625 C-24 42 -24 42 -24.99609375 44.703125 C-26.04313962 48.14167253 -26.37384109 51.10298064 -26.5625 54.6875 C-26.6346875 55.98171875 -26.706875 57.2759375 -26.78125 58.609375 C-26.85422423 60.0729138 -26.92713685 61.53645567 -27 63 C-27.09303368 64.73441357 -27.18681219 66.46878732 -27.28125 68.203125 C-27.52973847 72.80165347 -27.76730934 77.40064628 -28 82 C-28.99 81.67 -29.98 81.34 -31 81 C-31.10010303 75.55978549 -31.17204096 70.12012615 -31.21972656 64.67919922 C-31.23963929 62.83470298 -31.26677967 60.99026815 -31.30175781 59.14599609 C-31.50951845 47.89636877 -31.4421269 37.56180033 -27 27 C-26.34 26.34 -25.68 25.68 -25 25 C-25 25.66 -25 26.32 -25 27 C-24.34 27 -23.68 27 -23 27 C-22.34 25.02 -21.68 23.04 -21 21 C-20.34 21 -19.68 21 -19 21 C-18.773125 20.443125 -18.54625 19.88625 -18.3125 19.3125 C-16.62632969 16.34162851 -14.44612884 14.39177042 -12 12 C-10.96091612 10.96356473 -9.92319778 9.92575897 -8.88671875 8.88671875 C-5.92447917 5.92447917 -2.96223958 2.96223958 0 0 Z " fill="#E2C2F9" transform="translate(110,85)"/>
<path d="M0 0 C5.53588533 -0.02464775 11.071739 -0.04283496 16.60766602 -0.05493164 C18.4924373 -0.05997244 20.37720465 -0.06680498 22.26196289 -0.07543945 C24.96501636 -0.08751617 27.66801831 -0.09323068 30.37109375 -0.09765625 C31.21900986 -0.10281754 32.06692596 -0.10797882 32.9405365 -0.11329651 C34.96071068 -0.11349195 36.98077934 -0.06206211 39 0 C39.495 0.495 39.495 0.495 40 1 C42.21687994 1.15873955 44.43855298 1.25133837 46.66015625 1.31640625 C47.65685585 1.3475779 47.65685585 1.3475779 48.6736908 1.37937927 C50.80318543 1.44493658 52.93280668 1.50378785 55.0625 1.5625 C56.50326847 1.60567939 57.94402399 1.64929349 59.38476562 1.69335938 C62.9230404 1.80062393 66.46145869 1.90187371 70 2 C68.88500977 3.48388672 68.88500977 3.48388672 67 5 C64.22631836 5.32470703 64.22631836 5.32470703 60.83984375 5.2578125 C59.58284668 5.24290771 58.32584961 5.22800293 57.03076172 5.21264648 C56.3630072 5.19821503 55.69525269 5.18378357 55.00726318 5.16891479 C51.50648261 5.09463767 48.00531138 5.07107429 44.50390625 5.04296875 C43.79331055 5.03614578 43.08271484 5.02932281 42.35058594 5.02229309 C35.35157736 4.96712834 28.368496 5.15902686 21.375 5.4375 C20.29855225 5.47697754 19.22210449 5.51645508 18.11303711 5.55712891 C13.61520061 5.74503755 9.41044175 6.0721536 5 7 C2.898322 7.21359588 0.7937817 7.40047833 -1.3125 7.5625 C-2.91544922 7.68818359 -2.91544922 7.68818359 -4.55078125 7.81640625 C-5.35902344 7.87699219 -6.16726562 7.93757813 -7 8 C1.6828821 3.45182366 10.29946431 2.51598594 20 2 C13.4 1.67 6.8 1.34 0 1 C0 0.67 0 0.34 0 0 Z " fill="#D5B3F1" transform="translate(141,66)"/>
<path d="M0 0 C2.25684803 3.66737805 2.5784497 7.43334037 3 11.625 C3.08411133 12.37571777 3.16822266 13.12643555 3.25488281 13.89990234 C3.67656615 17.70058003 4.04817979 21.50123283 4.359375 25.3125 C5.73377547 41.18583213 7.50242734 59.40835993 19.2421875 71.109375 C21 73 21 73 21 76 C20.5875 75.54625 20.175 75.0925 19.75 74.625 C18.11389876 72.91717168 18.11389876 72.91717168 16.08203125 72.203125 C10.46886817 68.95949605 7.92690765 60.53580832 6.3125 54.5625 C4.36507241 45.81066769 3.23649585 36.87470781 2 28 C1.67 28 1.34 28 1 28 C0.67 33.28 0.34 38.56 0 44 C-0.33 44 -0.66 44 -1 44 C-1.02464513 37.8944529 -1.04283371 31.78893449 -1.05493164 25.68334961 C-1.05997288 23.60456844 -1.06680574 21.52579084 -1.07543945 19.44702148 C-1.08751422 16.46597414 -1.09323024 13.48497351 -1.09765625 10.50390625 C-1.10539818 9.10078941 -1.10539818 9.10078941 -1.11329651 7.66932678 C-1.11337204 6.80850998 -1.11344757 5.94769318 -1.11352539 5.06079102 C-1.115746 4.29912125 -1.11796661 3.53745148 -1.12025452 2.75270081 C-1 1 -1 1 0 0 Z " fill="#DFC2F7" transform="translate(80,244)"/>
<path d="M0 0 C-0.80824219 0.32613281 -1.61648437 0.65226562 -2.44921875 0.98828125 C-3.51785156 1.42527344 -4.58648437 1.86226563 -5.6875 2.3125 C-7.27111328 2.95638672 -7.27111328 2.95638672 -8.88671875 3.61328125 C-11.75714425 4.89182711 -14.32344047 6.36507955 -17 8 C-18.0725 8.4125 -19.145 8.825 -20.25 9.25 C-28.75818077 12.81199325 -39.24408416 21.18907487 -42.875 29.8125 C-43.24625 30.864375 -43.6175 31.91625 -44 33 C-44.66 33.99 -45.32 34.98 -46 36 C-46.66 36 -47.32 36 -48 36 C-48.66 37.98 -49.32 39.96 -50 42 C-50.66 42 -51.32 42 -52 42 C-50.60719076 32.80745903 -45.96513017 26.8636888 -40 20 C-39.40316406 19.30648437 -38.80632812 18.61296875 -38.19140625 17.8984375 C-29.58338728 8.60547938 -13.26122769 -3.74034627 0 0 Z " fill="#F8EFFD" transform="translate(137,70)"/>
<path d="M0 0 C0 0.66 0 1.32 0 2 C-15.15427082 8.67326393 -15.15427082 8.67326393 -22.625 11.75 C-25.50971581 12.93873524 -28.28164668 14.14369729 -31.0625 15.5625 C-33.6768774 16.84187617 -36.19370625 17.79651156 -38.9375 18.75 C-44.49390387 20.70928291 -49.75457658 23.1446304 -55.04858398 25.71386719 C-59.80097294 28 -59.80097294 28 -62 28 C-62 27.34 -62 26.68 -62 26 C-60.5437455 25.32880451 -59.08492133 24.66318193 -57.625 24 C-56.81289062 23.62875 -56.00078125 23.2575 -55.1640625 22.875 C-53 22 -53 22 -51 22 C-51 21.34 -51 20.68 -51 20 C-49.04327319 19.07990902 -47.08451474 18.16413851 -45.125 17.25 C-44.03445312 16.73953125 -42.94390625 16.2290625 -41.8203125 15.703125 C-38.18896463 14.05123296 -34.49732217 12.57354178 -30.78808594 11.10644531 C-27.73803078 9.89603813 -24.69896085 8.660245 -21.66015625 7.421875 C-19.46096016 6.53119404 -17.26174115 5.64056969 -15.0625 4.75 C-13.94037109 4.29109375 -12.81824219 3.8321875 -11.66210938 3.359375 C-10.05239258 2.7096875 -10.05239258 2.7096875 -8.41015625 2.046875 C-7.44215088 1.65338867 -6.47414551 1.25990234 -5.47680664 0.85449219 C-3 0 -3 0 0 0 Z " fill="#EBD1F6" transform="translate(139,48)"/>
<path d="M0 0 C5.6226805 1.83064016 5.6226805 1.83064016 8.22900391 3.00048828 C11.66341974 4.23929871 15.04060747 4.72325916 18.6484375 5.1171875 C19.42037445 5.20169159 20.1923114 5.28619568 20.98764038 5.3732605 C32.49954125 6.48865322 44.07368069 6.2109618 55.625 6.125 C57.99999619 6.11494196 60.37499655 6.10582114 62.75 6.09765625 C68.50009264 6.07588549 74.25002612 6.04263537 80 6 C80 6.33 80 6.66 80 7 C71.74943087 7.80155586 63.57666115 8.17102405 55.2890625 8.203125 C53.53316299 8.21167511 53.53316299 8.21167511 51.74179077 8.22039795 C49.28294764 8.22977855 46.82409234 8.23635401 44.36523438 8.24023438 C40.64170122 8.24995639 36.91871708 8.28105399 33.1953125 8.3125 C10.02277343 8.41260742 10.02277343 8.41260742 -1 5 C-1 4.34 -1 3.68 -1 3 C-0.34 3 0.32 3 1 3 C0.67 2.01 0.34 1.02 0 0 Z " fill="#DFD8E4" transform="translate(119,340)"/>
<path d="M0 0 C2.0625 0.4375 2.0625 0.4375 4 1 C2.1875 3 2.1875 3 0 5 C-0.99 5 -1.98 5 -3 5 C-5.9952413 6.02276532 -7.7448078 6.7448078 -10 9 C-12.44774868 9.31641629 -14.79164468 9.51589885 -17.25 9.625 C-17.96293213 9.66149658 -18.67586426 9.69799316 -19.41040039 9.7355957 C-33.08748309 10.38284322 -45.73014535 10.92335172 -58 4 C-59.7578125 2.37109375 -59.7578125 2.37109375 -61 1 C-58.73911498 1.50776378 -56.66031155 2.13195386 -54.49609375 2.97265625 C-42.77939357 7.14757241 -30.87630899 6.36807549 -18.59692383 6.06347656 C-16.73171968 6.01788541 -14.86576126 6 -13 6 C-12.2575 5.360625 -11.515 4.72125 -10.75 4.0625 C-7.45261071 1.58945803 -5.0450137 1.38894363 -1 1 C-0.67 0.67 -0.34 0.34 0 0 Z " fill="#E4CEF6" transform="translate(183,333)"/>
<path d="M0 0 C3 3.75 3 3.75 3 6 C3.99 6.33 4.98 6.66 6 7 C8 10 8 10 8 14 C8.66 14.33 9.32 14.66 10 15 C10 15.99 10 16.98 10 18 C10.66 18 11.32 18 12 18 C12 18.66 12 19.32 12 20 C12.66 20 13.32 20 14 20 C14.20625 21.051875 14.4125 22.10375 14.625 23.1875 C15.8537607 27.65079256 18.39725842 29.25878358 22 32 C22 32.66 22 33.32 22 34 C23.65 34.66 25.3 35.32 27 36 C27 36.66 27 37.32 27 38 C27.94875 38.309375 28.8975 38.61875 29.875 38.9375 C33 40 33 40 35 41 C34.505 41.99 34.505 41.99 34 43 C20.6322565 38.64095321 10.29837584 25.07037445 4 13 C0 4.26934985 0 4.26934985 0 0 Z " fill="#F6EDFB" transform="translate(71,296)"/>
<path d="M0 0 C0.66 0.33 1.32 0.66 2 1 C2 1.66 2 2.32 2 3 C7.94 3 13.88 3 20 3 C20 3.33 20 3.66 20 4 C1.17995444 5.14806378 1.17995444 5.14806378 -8 5 C-8 5.66 -8 6.32 -8 7 C-6.88625 6.95875 -5.7725 6.9175 -4.625 6.875 C-1 7 -1 7 1 9 C-14.30919139 9.19109948 -14.30919139 9.19109948 -20 8 C-20.33 7.67 -20.66 7.34 -21 7 C-22.84891946 6.76636119 -24.70488031 6.58696365 -26.5625 6.4375 C-27.57441406 6.35371094 -28.58632812 6.26992187 -29.62890625 6.18359375 C-30.80259766 6.09271484 -30.80259766 6.09271484 -32 6 C-32 5.67 -32 5.34 -32 5 C-30.17662109 4.90912109 -30.17662109 4.90912109 -28.31640625 4.81640625 C-26.73175772 4.73201668 -25.14712298 4.6473679 -23.5625 4.5625 C-22.76005859 4.52318359 -21.95761719 4.48386719 -21.13085938 4.44335938 C-17.24760439 4.5945704 -17.24760439 4.5945704 -14 3 C-10.63790935 2.71530684 -7.27585999 2.55104937 -3.90625 2.37890625 C-2.46765625 2.19134766 -2.46765625 2.19134766 -1 2 C-0.67 1.34 -0.34 0.68 0 0 Z " fill="#DEC4F4" transform="translate(281,63)"/>
<path d="M0 0 C12.26949226 1.30409274 25.42994734 12.52993826 33.1875 21.625 C40.92005387 31.79941299 47.85268146 44.92555098 47 58 C45.26780567 54.89374435 44.51507508 52.03765327 43.8125 48.5625 C40.11902336 33.40077838 29.60383553 18.31278179 16.29931641 9.92822266 C13.28307576 8.13350751 10.22350187 6.431447 7.13671875 4.76171875 C4.56546908 3.31759222 2.29348461 1.84045061 0 0 Z " fill="#FCFCFC" transform="translate(317,69)"/>
<path d="M0 0 C0.96421875 0.00257812 1.9284375 0.00515625 2.921875 0.0078125 C3.87578125 0.00523438 4.8296875 0.00265625 5.8125 0 C8.53651428 0.12652525 11.01862509 0.52275869 13.671875 1.1328125 C13.341875 2.1228125 13.011875 3.1128125 12.671875 4.1328125 C11.52972534 4.17039673 11.52972534 4.17039673 10.36450195 4.20874023 C6.90430124 4.32500298 3.44435246 4.44759228 -0.015625 4.5703125 C-1.21380859 4.60962891 -2.41199219 4.64894531 -3.64648438 4.68945312 C-4.80341797 4.73134766 -5.96035156 4.77324219 -7.15234375 4.81640625 C-8.21541748 4.85306396 -9.27849121 4.88972168 -10.3737793 4.92749023 C-13.11559032 5.11804168 -15.64677197 5.55207953 -18.328125 6.1328125 C-20.429803 6.34640838 -22.5343433 6.53329083 -24.640625 6.6953125 C-26.24357422 6.82099609 -26.24357422 6.82099609 -27.87890625 6.94921875 C-28.68714844 7.00980469 -29.49539062 7.07039063 -30.328125 7.1328125 C-22.47956098 3.02165992 -14.71311853 1.77478418 -5.91796875 1.34375 C-3.04757229 1.10996205 -2.79389712 0.15938339 0 0 Z " fill="#DDBEF5" transform="translate(164.328125,66.8671875)"/>
<path d="M0 0 C0.33 0 0.66 0 1 0 C1.33 4.95 1.66 9.9 2 15 C2.33 12.03 2.66 9.06 3 6 C3.66 6.33 4.32 6.66 5 7 C4.93941406 7.86238281 4.87882812 8.72476563 4.81640625 9.61328125 C4.09866192 20.07026408 3.52960103 30.53192858 3 41 C2.01 40.67 1.02 40.34 0 40 C0 26.8 0 13.6 0 0 Z " fill="#DCBCF6" transform="translate(79,126)"/>
<path d="M0 0 C12.04543701 5.53933329 19.56704262 20.53548639 24.1328125 32.375 C25.818964 37.47902615 26.44479024 41.70243579 25 47 C24.67 47 24.34 47 24 47 C23.87625 46.1028125 23.7525 45.205625 23.625 44.28125 C21.16383651 29.39121089 15.04130715 17.30449931 5 6 C3.99637396 4.79467672 2.99580319 3.58679431 2 2.375 C1.34 1.59125 0.68 0.8075 0 0 Z " fill="#E1E1E3" transform="translate(337,82)"/>
<path d="M0 0 C0.66 0.33 1.32 0.66 2 1 C-12 15 -26 29 -40 43 C-39.34834608 37.35233273 -34.7806744 33.59278277 -30.66015625 30.140625 C-24.28847131 24.61577729 -18.43814761 18.54361891 -12.5 12.5625 C-11.28408886 11.3415631 -10.06794484 10.12085808 -8.8515625 8.90039062 C-5.89835034 5.93625987 -2.94830602 2.96901042 0 0 Z " fill="#F5EEF9" transform="translate(163,156)"/>
<path d="M0 0 C1.73443359 0.01353516 1.73443359 0.01353516 3.50390625 0.02734375 C6.33615647 0.05075078 9.16796619 0.08354005 12 0.125 C11.67 0.785 11.34 1.445 11 2.125 C9.00976562 2.50390625 9.00976562 2.50390625 6.40625 2.6875 C5.4575 2.76226562 4.50875 2.83703125 3.53125 2.9140625 C2.03078125 3.01847656 2.03078125 3.01847656 0.5 3.125 C-6.52559177 3.62949728 -13.15505082 4.42790516 -20 6.125 C-19 4.125 -19 4.125 -17 3.125 C-18.32 2.795 -19.64 2.465 -21 2.125 C-13.93991275 -0.0726252 -7.35642856 -0.1095459 0 0 Z " fill="#E8D9F7" transform="translate(150,66.875)"/>
<path d="M0 0 C0.66 0.33 1.32 0.66 2 1 C2.47070312 2.79077148 2.47070312 2.79077148 2.78125 5.12109375 C2.90008545 5.97026367 3.0189209 6.81943359 3.14135742 7.69433594 C3.25970947 8.59958008 3.37806152 9.50482422 3.5 10.4375 C3.75469618 12.26457674 4.01118787 14.09140414 4.26953125 15.91796875 C4.39279785 16.79630371 4.51606445 17.67463867 4.64306641 18.57958984 C5.25944822 22.75934994 6.10566596 26.87230444 7 31 C4.36404228 28.36404228 3.92297888 25.93812819 2.875 22.375 C2.34519531 20.59222656 2.34519531 20.59222656 1.8046875 18.7734375 C1.53914063 17.85820312 1.27359375 16.94296875 1 16 C0.34 16.66 -0.32 17.32 -1 18 C-1.02684312 15.18743719 -1.04676188 12.37512759 -1.0625 9.5625 C-1.07087891 8.76005859 -1.07925781 7.95761719 -1.08789062 7.13085938 C-1.0965143 5.08704779 -1.0522815 3.04316098 -1 1 C-0.67 0.67 -0.34 0.34 0 0 Z " fill="#E8D0FB" transform="translate(81,271)"/>
<path d="M0 0 C1.71957711 5.34706972 0.38987439 10.73059125 -0.3125 16.1875 C-0.44333984 17.30576172 -0.57417969 18.42402344 -0.70898438 19.57617188 C-0.84240234 20.63771484 -0.97582031 21.69925781 -1.11328125 22.79296875 C-1.23485596 23.7677417 -1.35643066 24.74251465 -1.48168945 25.74682617 C-1.65273193 26.49037354 -1.82377441 27.2339209 -2 28 C-2.66 28.33 -3.32 28.66 -4 29 C-4.1174875 25.66696997 -4.18767324 22.33448163 -4.25 19 C-4.28351563 18.06542969 -4.31703125 17.13085938 -4.3515625 16.16796875 C-4.44296255 9.63286511 -3.36488092 5.61696657 0 0 Z " fill="#EAD6FB" transform="translate(84,113)"/>
<path d="M0 0 C0 0.66 0 1.32 0 2 C-10.52204254 6.81875223 -20.59425555 10.77152417 -32 13 C-28.93065278 10.48340023 -25.924083 8.99184479 -22.24609375 7.51953125 C-21.14458984 7.07802734 -20.04308594 6.63652344 -18.90820312 6.18164062 C-17.76287109 5.72982422 -16.61753906 5.27800781 -15.4375 4.8125 C-14.28830078 4.34908203 -13.13910156 3.88566406 -11.95507812 3.40820312 C-3.38688559 0 -3.38688559 0 0 0 Z " fill="#F2E3FB" transform="translate(139,48)"/>
<path d="M0 0 C1.50278915 0.40649215 3.00208692 0.82589208 4.5 1.25 C5.3353125 1.48203125 6.170625 1.7140625 7.03125 1.953125 C9.45937072 2.80935704 11.34043192 3.72796016 13.5625 4.96875 C18.92348302 7.72024791 24.59303902 8.38797938 30.5 9.25 C31.60859375 9.42273438 32.7171875 9.59546875 33.859375 9.7734375 C36.5713217 10.19425682 39.28451585 10.60276784 42 11 C42 11.33 42 11.66 42 12 C37.32640025 11.73728285 32.66446437 11.39264761 28 11 C26.99710938 10.92394531 25.99421875 10.84789062 24.9609375 10.76953125 C15.67721767 9.68259436 8.08909508 5.4141001 0 1 C0 0.67 0 0.34 0 0 Z " fill="#FBF4FD" transform="translate(103,338)"/>
<path d="M0 0 C2.89118374 0.93768121 5.76001371 1.90883404 8.6015625 2.98828125 C13.77485451 4.94786156 18.48112554 6.50943338 24 7 C24 7.33 24 7.66 24 8 C15.28296246 8.48032656 7.45295786 7.07313419 -1 5 C-1 4.34 -1 3.68 -1 3 C-0.34 3 0.32 3 1 3 C0.67 2.01 0.34 1.02 0 0 Z " fill="#E8C6F9" transform="translate(119,340)"/>
<path d="M0 0 C2.60018816 3.90028225 2.15085514 7.47434569 2 12 C1.67 12 1.34 12 1 12 C0.67 22.56 0.34 33.12 0 44 C-0.33 44 -0.66 44 -1 44 C-1.02464513 37.8944529 -1.04283371 31.78893449 -1.05493164 25.68334961 C-1.05997288 23.60456844 -1.06680574 21.52579084 -1.07543945 19.44702148 C-1.08751422 16.46597414 -1.09323024 13.48497351 -1.09765625 10.50390625 C-1.10539818 9.10078941 -1.10539818 9.10078941 -1.11329651 7.66932678 C-1.11337204 6.80850998 -1.11344757 5.94769318 -1.11352539 5.06079102 C-1.115746 4.29912125 -1.11796661 3.53745148 -1.12025452 2.75270081 C-1 1 -1 1 0 0 Z " fill="#DBBDF2" transform="translate(80,244)"/>
<path d="M0 0 C0.66 0.99 1.32 1.98 2 3 C1.67 3.33 1.34 3.66 1 4 C1.66 4.33 2.32 4.66 3 5 C3 5.99 3 6.98 3 8 C2.01 8.66 1.02 9.32 0 10 C-0.99 11.485 -0.99 11.485 -2 13 C-2 11.68 -2 10.36 -2 9 C-2.99 9.33 -3.98 9.66 -5 10 C-5.75 8.3125 -5.75 8.3125 -6 6 C-4.21482174 3.35301155 -2.87978754 1.43989377 0 0 Z " fill="#ECE9EF" transform="translate(355,167)"/>
<path d="M0 0 C0.66 0 1.32 0 2 0 C0.67309094 2.85505551 -0.83956205 5.17834872 -2.8125 7.625 C-7.32426758 13.52670087 -10.30731813 20.10918229 -13 27 C-13.66 27 -14.32 27 -15 27 C-12.17556965 17.03142231 -7.27329096 7.48109927 0 0 Z " fill="#DAACF1" transform="translate(33,99)"/>
<path d="M0 0 C1.37562854 1.28965176 2.70766393 2.62689293 4 4 C4 4.66 4 5.32 4 6 C5.75376953 6.09087891 5.75376953 6.09087891 7.54296875 6.18359375 C9.09115614 6.26804034 10.63933268 6.35268625 12.1875 6.4375 C12.95642578 6.47681641 13.72535156 6.51613281 14.51757812 6.55664062 C18.43251075 6.77507034 22.17120688 7.08692108 26 8 C26 8.33 26 8.66 26 9 C18.74 9 11.48 9 4 9 C0 2 0 2 0 0 Z " fill="#F7F6F8" transform="translate(279,57)"/>
<path d="M0 0 C0.99 0 1.98 0 3 0 C3.24492188 0.71929687 3.48984375 1.43859375 3.7421875 2.1796875 C5.57194629 6.28243857 8.42112483 9.30088992 11.3203125 12.6953125 C13 15 13 15 13 18 C12.5875 17.54625 12.175 17.0925 11.75 16.625 C10.1193284 14.91439518 10.1193284 14.91439518 8.09375 14.2421875 C5.19476793 12.52226903 4.29533343 10.46579144 2.75 7.5 C2.22921875 6.5203125 1.7084375 5.540625 1.171875 4.53125 C0 2 0 2 0 0 Z " fill="#E9D1FA" transform="translate(88,302)"/>
<path d="M0 0 C0.99 0.33 1.98 0.66 3 1 C3 1.66 3 2.32 3 3 C3.99 3.33 4.98 3.66 6 4 C6 5.32 6 6.64 6 8 C2.80097361 8.08886184 0.07322544 7.91058531 -3 7 C-3.33 5.02 -3.66 3.04 -4 1 C-2.68 1.33 -1.36 1.66 0 2 C0 1.34 0 0.68 0 0 Z " fill="#EEECF1" transform="translate(340,149)"/>
<path d="M0 0 C7.73708326 -0.12152487 15.307359 0.15199233 23 1 C23 1.66 23 2.32 23 3 C16.73 3 10.46 3 4 3 C4 2.34 4 1.68 4 1 C2.68 0.67 1.36 0.34 0 0 Z " fill="#D7B3F4" transform="translate(237,68)"/>
<path d="M0 0 C0.66 0 1.32 0 2 0 C2 0.66 2 1.32 2 2 C2.66 2 3.32 2 4 2 C4 2.66 4 3.32 4 4 C4.99 4 5.98 4 7 4 C7 4.66 7 5.32 7 6 C7.99 6 8.98 6 10 6 C10 6.66 10 7.32 10 8 C10.66 8 11.32 8 12 8 C12 8.66 12 9.32 12 10 C12.78375 10.103125 13.5675 10.20625 14.375 10.3125 C17 11 17 11 19 14 C14.81394474 13.63064218 12.70001598 12.1111508 9.62109375 9.328125 C7.8965164 7.91521826 6.16611932 6.95715658 4.1875 5.9375 C1 4 1 4 0.0625 1.75 C0.041875 1.1725 0.02125 0.595 0 0 Z " fill="#E5CDF9" transform="translate(102,320)"/>
<path d="M0 0 C3 3.75 3 3.75 3 6 C3.99 6.33 4.98 6.66 6 7 C8 10 8 10 8 14 C8.66 14.33 9.32 14.66 10 15 C10 15.99 10 16.98 10 18 C10.66 18 11.32 18 12 18 C12 18.66 12 19.32 12 20 C12.66 20 13.32 20 14 20 C13.67 21.32 13.34 22.64 13 24 C4 10.89320388 4 10.89320388 4 7 C3.34 7 2.68 7 2 7 C0.5393715 4.35261084 0 3.10551666 0 0 Z " fill="#E9CDF8" transform="translate(71,296)"/>
<path d="M0 0 C-14.87643021 7.77803204 -14.87643021 7.77803204 -21 9 C-21.66 8.67 -22.32 8.34 -23 8 C-5.80095759 -1.93365253 -5.80095759 -1.93365253 0 0 Z " fill="#E2BFF4" transform="translate(117,59)"/>
<path d="M0 0 C-6.56005257 4.36226846 -11.87701381 7.38680887 -20 7 C-16.8010242 4.86734947 -13.50868866 3.34036135 -10 1.8125 C-9.3709375 1.52697266 -8.741875 1.24144531 -8.09375 0.94726562 C-3.35183165 -1.11727722 -3.35183165 -1.11727722 0 0 Z " fill="#EBD1F9" transform="translate(171,36)"/>
<path d="M0 0 C1.32 0.66 2.64 1.32 4 2 C3.49436343 5.74171065 2.88706033 7.5571028 0 10 C-0.556875 10.556875 -1.11375 11.11375 -1.6875 11.6875 C-2.120625 12.120625 -2.55375 12.55375 -3 13 C-3.625 11.1875 -3.625 11.1875 -4 9 C-3.34 8.01 -2.68 7.02 -2 6 C-1.29835358 4.01200182 -0.62627128 2.01301483 0 0 Z " fill="#EEECF1" transform="translate(355,183)"/>
<path d="M0 0 C0.66 0.33 1.32 0.66 2 1 C2 1.66 2 2.32 2 3 C7.94 3 13.88 3 20 3 C20 3.33 20 3.66 20 4 C8.53908548 4.93236476 -2.53908548 4.93236476 -14 4 C-14 3.67 -14 3.34 -14 3 C-13.07316406 2.95101562 -12.14632813 2.90203125 -11.19140625 2.8515625 C-9.99386719 2.77679688 -8.79632813 2.70203125 -7.5625 2.625 C-6.36753906 2.55539063 -5.17257812 2.48578125 -3.94140625 2.4140625 C-2.97074219 2.27742188 -2.00007813 2.14078125 -1 2 C-0.67 1.34 -0.34 0.68 0 0 Z " fill="#D7C9E3" transform="translate(281,63)"/>
<path d="M0 0 C-1.26691507 0.67408308 -2.53870749 1.33900497 -3.8125 2 C-4.52019531 2.37125 -5.22789063 2.7425 -5.95703125 3.125 C-8 4 -8 4 -11 4 C-11 4.66 -11 5.32 -11 6 C-16.29230769 9.07692308 -16.29230769 9.07692308 -19.875 8.6875 C-20.57625 8.460625 -21.2775 8.23375 -22 8 C-19.57377534 5.57377534 -17.36473063 4.78499587 -14.1875 3.5 C-13.14980469 3.0771875 -12.11210938 2.654375 -11.04296875 2.21875 C-10.03878906 1.8165625 -9.03460938 1.414375 -8 1 C-7.10925781 0.5978125 -6.21851562 0.195625 -5.30078125 -0.21875 C-3 -1 -3 -1 0 0 Z " fill="#F1E1F9" transform="translate(88,70)"/>
<path d="M0 0 C0.33 0 0.66 0 1 0 C1.66 5.94 2.32 11.88 3 18 C2.34 17.34 1.68 16.68 1 16 C0.34 16.66 -0.32 17.32 -1 18 C-1.02684312 15.18743719 -1.04676188 12.37512759 -1.0625 9.5625 C-1.07087891 8.76005859 -1.07925781 7.95761719 -1.08789062 7.13085938 C-1.0965143 5.08704779 -1.0522815 3.04316098 -1 1 C-0.67 0.67 -0.34 0.34 0 0 Z " fill="#F0E0FC" transform="translate(81,271)"/>
<path d="M0 0 C1 3 1 3 -0.07421875 5.5234375 C-7.39617333 18.46539111 -7.39617333 18.46539111 -12 20 C-10.966964 17.67566899 -9.90311905 15.88581888 -8.25 13.9375 C-4.93410331 9.60841266 -2.53147284 4.81823664 0 0 Z " fill="#FBFBFB" transform="translate(357,307)"/>
<path d="M0 0 C0.33 0.99 0.66 1.98 1 3 C2.98 2.67 4.96 2.34 7 2 C5.8125 4.4375 5.8125 4.4375 4 7 C1.3125 7.8125 1.3125 7.8125 -1 8 C-2.2077558 4.37673261 -1.54311128 3.35853631 0 0 Z " fill="#EDEAEE" transform="translate(334,122)"/>
<path d="M0 0 C0.93423645 3.01031744 1.04449911 3.86650268 0 7 C-1.98 6.34 -3.96 5.68 -6 5 C-3.74193548 0 -3.74193548 0 0 0 Z " fill="#F0EFF2" transform="translate(316,308)"/>
<path d="M0 0 C1.27230469 0.00902344 2.54460937 0.01804687 3.85546875 0.02734375 C5.31919922 0.04474609 5.31919922 0.04474609 6.8125 0.0625 C6.8125 0.3925 6.8125 0.7225 6.8125 1.0625 C1.52237333 2.63828241 -3.78954011 3.91191444 -9.1875 5.0625 C-8.1875 3.0625 -8.1875 3.0625 -6.1875 2.0625 C-7.5075 1.7325 -8.8275 1.4025 -10.1875 1.0625 C-6.62704823 -0.12431726 -3.74941663 -0.03439832 0 0 Z " fill="#F2E5FB" transform="translate(139.1875,67.9375)"/>
<path d="M0 0 C0.66 0 1.32 0 2 0 C2.33 0.99 2.66 1.98 3 3 C1.35 4.65 -0.3 6.3 -2 8 C-2.99 7.34 -3.98 6.68 -5 6 C-5 5.01 -5 4.02 -5 3 C-4.360625 2.87625 -3.72125 2.7525 -3.0625 2.625 C-2.0415625 2.315625 -2.0415625 2.315625 -1 2 C-0.67 1.34 -0.34 0.68 0 0 Z " fill="#EEEBEF" transform="translate(292,328)"/>
<path d="M0 0 C6.64409958 -0.21432579 12.53205867 0.48766299 19 2 C19 2.33 19 2.66 19 3 C12.2718373 3.22262303 6.46008837 2.95021536 0 1 C0 0.67 0 0.34 0 0 Z " fill="#E0B7F4" transform="translate(124,345)"/>
<path d="M0 0 C1.25127906 3.54667178 0.72285053 5.72253438 -0.4375 9.25 C-0.72496094 10.14203125 -1.01242188 11.0340625 -1.30859375 11.953125 C-1.53675781 12.62859375 -1.76492187 13.3040625 -2 14 C-2.33 14 -2.66 14 -3 14 C-3.32374517 8.49633208 -3.53286034 4.56327794 0 0 Z " fill="#F6EBFD" transform="translate(84,113)"/>
<path d="M0 0 C0 0.66 0 1.32 0 2 C-3.47895402 4.35341007 -7.23052324 6.15909274 -11 8 C-9.94434467 4.71573897 -8.38339648 3.42848444 -5.5 1.75 C-2 0 -2 0 0 0 Z " fill="#E2C9F7" transform="translate(227,317)"/>
<path d="M0 0 C0.66 0.33 1.32 0.66 2 1 C-1.96 4.96 -5.92 8.92 -10 13 C-10 8.83248505 -7.76127698 6.85829482 -5 4 C-3.36927384 2.62294236 -1.7133562 1.27277889 0 0 Z " fill="#E3B1F8" transform="translate(46,97)"/>
<path d="M0 0 C5.61 0 11.22 0 17 0 C17 0.33 17 0.66 17 1 C13.7 1 10.4 1 7 1 C7 1.66 7 2.32 7 3 C4.69 2.67 2.38 2.34 0 2 C0 1.34 0 0.68 0 0 Z " fill="#DDD1EC" transform="translate(266,67)"/>
<path d="M0 0 C1 2 1 2 0.25 4.9375 C-0.89726872 7.74830836 -1.69701628 9.1157406 -4 11 C-4.125 5.25 -4.125 5.25 -3 3 C-2.34 3 -1.68 3 -1 3 C-0.67 2.01 -0.34 1.02 0 0 Z " fill="#E4C6F9" transform="translate(92,103)"/>
<path d="M0 0 C0 0.66 0 1.32 0 2 C-1.26418246 2.69965443 -2.53665402 3.38434763 -3.8125 4.0625 C-4.52019531 4.44535156 -5.22789062 4.82820313 -5.95703125 5.22265625 C-8 6 -8 6 -11 5 C-10.01 4.67 -9.02 4.34 -8 4 C-8 3.34 -8 2.68 -8 2 C-5.09399739 0.74335022 -3.20395416 0 0 0 Z " fill="#EBD2F7" transform="translate(139,48)"/>
<path d="M0 0 C-4.18586481 3.18923033 -6.70558305 4.50423019 -12 4 C-8.15336308 0.86570325 -4.95471579 -1.65157193 0 0 Z " fill="#F0DEF9" transform="translate(151,44)"/>
<path d="M0 0 C0 0.33 0 0.66 0 1 C-1.41433206 1.2236337 -2.83167618 1.42826476 -4.25 1.625 C-5.03890625 1.74101562 -5.8278125 1.85703125 -6.640625 1.9765625 C-9.32152459 2.00319395 -10.72694089 1.36592084 -13 0 C-8.38926889 -1.29676812 -4.66159911 -0.71109139 0 0 Z " fill="#EDEDEE" transform="translate(315,346)"/>
<path d="M0 0 C1.32 0.33 2.64 0.66 4 1 C4 2.65 4 4.3 4 6 C3.01 6 2.02 6 1 6 C1 5.01 1 4.02 1 3 C0.01 3.33 -0.98 3.66 -2 4 C-1.34 2.68 -0.68 1.36 0 0 Z " fill="#EDECEF" transform="translate(278,331)"/>
<path d="M0 0 C1 3 1 3 -0.4375 6.1875 C-1.2109375 7.5796875 -1.2109375 7.5796875 -2 9 C-2.66 9 -3.32 9 -4 9 C-3.46930939 5.17902761 -2.50298434 2.93828597 0 0 Z " fill="#FAF3FE" transform="translate(89,103)"/>
<path d="M0 0 C0.66 0 1.32 0 2 0 C0.44499019 3.81684226 -2.03595495 6.19195732 -5 9 C-4.42676569 5.13066838 -2.61046448 2.84777943 0 0 Z " fill="#E3BEF4" transform="translate(33,99)"/>
<path d="M0 0 C1.32 0.33 2.64 0.66 4 1 C4 2.65 4 4.3 4 6 C3.34 6 2.68 6 2 6 C2 5.34 2 4.68 2 4 C0.68 3.67 -0.64 3.34 -2 3 C-1.34 2.01 -0.68 1.02 0 0 Z " fill="#F2F0F3" transform="translate(270,337)"/>
<path d="M0 0 C1.32 0 2.64 0 4 0 C4 0.66 4 1.32 4 2 C3.34 2 2.68 2 2 2 C2 2.66 2 3.32 2 4 C2.99 4 3.98 4 5 4 C4.67 4.99 4.34 5.98 4 7 C3.01 6.67 2.02 6.34 1 6 C0.67 4.02 0.34 2.04 0 0 Z " fill="#EAE8EC" transform="translate(342,135)"/>
<path d="M0 0 C0.66 0.33 1.32 0.66 2 1 C0.02 2.98 -1.96 4.96 -4 7 C-4.66 6.67 -5.32 6.34 -6 6 C-3.375 1.125 -3.375 1.125 0 0 Z " fill="#F6F6F6" transform="translate(342,328)"/>
<path d="M0 0 C1.98 0.495 1.98 0.495 4 1 C3.34 2.65 2.68 4.3 2 6 C1.67 5.34 1.34 4.68 1 4 C0.34 4 -0.32 4 -1 4 C-0.67 2.68 -0.34 1.36 0 0 Z " fill="#EEECEF" transform="translate(334,309)"/>
</svg>
